<svg xmlns="http://www.w3.org/2000/svg" viewBox="0 0 800 534" width="800" height="534">
  <defs>
    <linearGradient id="bg" x1="0" y1="0" x2="1" y2="1">
      <stop offset="0%" stop-color="#0a0f1e"/>
      <stop offset="100%" stop-color="#111827"/>
    </linearGradient>
    <linearGradient id="gold-v" x1="0" y1="0" x2="0" y2="1">
      <stop offset="0%" stop-color="#e8d08a"/>
      <stop offset="60%" stop-color="#c9a84c"/>
      <stop offset="100%" stop-color="#9b7d2e"/>
    </linearGradient>
    <linearGradient id="gold-h" x1="0" y1="0" x2="1" y2="0">
      <stop offset="0%" stop-color="#e8d08a"/>
      <stop offset="60%" stop-color="#c9a84c"/>
      <stop offset="100%" stop-color="#9b7d2e"/>
    </linearGradient>
    <linearGradient id="gold-d" x1="0" y1="0" x2="1" y2="1">
      <stop offset="0%" stop-color="#e8d08a"/>
      <stop offset="100%" stop-color="#9b7d2e"/>
    </linearGradient>
    
  </defs>
  <rect width="800" height="534" fill="url(#bg)"/>
  
  <!-- Subtle grid -->
  <g stroke="rgba(201,168,76,0.18)" stroke-width="0.5" fill="none" opacity="0.6">
    <line x1="0" y1="0" x2="0" y2="534"/><line x1="80" y1="0" x2="80" y2="534"/><line x1="160" y1="0" x2="160" y2="534"/><line x1="240" y1="0" x2="240" y2="534"/><line x1="320" y1="0" x2="320" y2="534"/><line x1="400" y1="0" x2="400" y2="534"/><line x1="480" y1="0" x2="480" y2="534"/><line x1="560" y1="0" x2="560" y2="534"/><line x1="640" y1="0" x2="640" y2="534"/><line x1="720" y1="0" x2="720" y2="534"/>
    <line x1="0" y1="0" x2="800" y2="0"/><line x1="0" y1="80" x2="800" y2="80"/><line x1="0" y1="160" x2="800" y2="160"/><line x1="0" y1="240" x2="800" y2="240"/><line x1="0" y1="320" x2="800" y2="320"/><line x1="0" y1="400" x2="800" y2="400"/><line x1="0" y1="480" x2="800" y2="480"/>
  </g>
  <!-- Document shadow -->
  <rect x="222" y="90" width="296" height="384" rx="3" fill="rgba(0,0,0,0.35)" transform="translate(8,10)"/>
  <!-- Document body -->
  <rect x="222" y="90" width="296" height="384" rx="3" fill="#0a0f1e" stroke="#c9a84c" stroke-width="1.2" opacity="0.95"/>
  <!-- Folded corner -->
  <polygon points="518,90 518,130 478,90" fill="#9b7d2e" opacity="0.7"/>
  <line x1="478" y1="90" x2="518" y2="130" stroke="#c9a84c" stroke-width="1"/>
  <!-- Header rule -->
  <line x1="242" y1="155" x2="498" y2="155" stroke="#c9a84c" stroke-width="1.5"/>
  <!-- Title block -->
  <rect x="242" y="118" width="180" height="10" rx="2" fill="#c9a84c" opacity="0.9"/>
  <rect x="242" y="133" width="110" height="6" rx="2" fill="#c9a84c" opacity="0.35"/>
  <!-- Body lines -->
  <rect x="242" y="170" width="230" height="6" rx="2" fill="#c9a84c" opacity="0.22"/><rect x="242" y="182" width="240" height="6" rx="2" fill="#c9a84c" opacity="0.22"/><rect x="242" y="194" width="200" height="6" rx="2" fill="#c9a84c" opacity="0.22"/><rect x="242" y="206" width="220" height="6" rx="2" fill="#c9a84c" opacity="0.22"/><rect x="242" y="218" width="210" height="6" rx="2" fill="#c9a84c" opacity="0.22"/><rect x="242" y="230" width="240" height="6" rx="2" fill="#c9a84c" opacity="0.22"/><rect x="242" y="242" width="180" height="6" rx="2" fill="#c9a84c" opacity="0.22"/><rect x="242" y="260" width="230" height="6" rx="2" fill="#c9a84c" opacity="0.22"/><rect x="242" y="272" width="215" height="6" rx="2" fill="#c9a84c" opacity="0.22"/><rect x="242" y="284" width="200" height="6" rx="2" fill="#c9a84c" opacity="0.22"/><rect x="242" y="296" width="225" height="6" rx="2" fill="#c9a84c" opacity="0.22"/><rect x="242" y="308" width="190" height="6" rx="2" fill="#c9a84c" opacity="0.22"/><rect x="242" y="320" width="210" height="6" rx="2" fill="#c9a84c" opacity="0.22"/><rect x="242" y="332" width="220" height="6" rx="2" fill="#c9a84c" opacity="0.22"/><rect x="242" y="344" width="175" height="6" rx="2" fill="#c9a84c" opacity="0.22"/>
  <!-- Section divider -->
  <line x1="242" y1="360" x2="498" y2="360" stroke="#c9a84c" stroke-width="0.8" stroke-dasharray="4,4" opacity="0.4"/>
  <!-- Signature lines -->
  <line x1="252" y1="415" x2="360" y2="415" stroke="#c9a84c" stroke-width="1.2" opacity="0.6"/>
  <line x1="390" y1="415" x2="498" y2="415" stroke="#c9a84c" stroke-width="1.2" opacity="0.6"/>
  <rect x="260" y="398" width="48" height="4" rx="2" fill="#c9a84c" opacity="0.25"/>
  <rect x="398" y="398" width="48" height="4" rx="2" fill="#c9a84c" opacity="0.25"/>
  <!-- Wax seal -->
  <circle cx="455" cy="390" r="22" fill="#9b7d2e" stroke="#c9a84c" stroke-width="1.5"/>
  <circle cx="455" cy="390" r="16" fill="none" stroke="#c9a84c" stroke-width="0.8" stroke-dasharray="3,2.5"/>
  <circle cx="455" cy="390" r="9" fill="#c9a84c" opacity="0.85"/>
  <!-- Right accent bar -->
  <rect x="540" y="150" width="2" height="234" rx="1" fill="#c9a84c" opacity="0.15"/>
  <!-- Horizontal accent -->
  <line x1="170" y1="267" x2="222" y2="267" stroke="#c9a84c" stroke-width="1" opacity="0.3"/>

</svg>