<svg xmlns="http://www.w3.org/2000/svg" viewBox="0 0 800 534" width="800" height="534">
  <defs>
    <linearGradient id="bg" x1="0" y1="0" x2="1" y2="1">
      <stop offset="0%" stop-color="#0a0f1e"/>
      <stop offset="100%" stop-color="#111827"/>
    </linearGradient>
    <linearGradient id="gold-v" x1="0" y1="0" x2="0" y2="1">
      <stop offset="0%" stop-color="#e8d08a"/>
      <stop offset="60%" stop-color="#c9a84c"/>
      <stop offset="100%" stop-color="#9b7d2e"/>
    </linearGradient>
    <linearGradient id="gold-h" x1="0" y1="0" x2="1" y2="0">
      <stop offset="0%" stop-color="#e8d08a"/>
      <stop offset="60%" stop-color="#c9a84c"/>
      <stop offset="100%" stop-color="#9b7d2e"/>
    </linearGradient>
    <linearGradient id="gold-d" x1="0" y1="0" x2="1" y2="1">
      <stop offset="0%" stop-color="#e8d08a"/>
      <stop offset="100%" stop-color="#9b7d2e"/>
    </linearGradient>
    
  </defs>
  <rect width="800" height="534" fill="url(#bg)"/>
  
  <!-- Outer frame -->
  <rect x="100" y="72" width="600" height="390" rx="4" fill="none" stroke="#c9a84c" stroke-width="1" opacity="0.3"/>
  <!-- Header bar -->
  <rect x="100" y="72" width="600" height="52" rx="4" fill="#c9a84c" opacity="0.08"/>
  <line x1="100" y1="124" x2="700" y2="124" stroke="#c9a84c" stroke-width="1" opacity="0.3"/>
  <!-- Month label -->
  <rect x="240" y="90" width="120" height="16" rx="3" fill="#c9a84c" opacity="0.35"/>
  <rect x="160" y="91" width="50" height="14" rx="3" fill="#c9a84c" opacity="0.15"/>
  <rect x="590" y="91" width="50" height="14" rx="3" fill="#c9a84c" opacity="0.15"/>
  <!-- Day headers -->
  <rect x="114" y="133" width="58" height="8" rx="2" fill="#c9a84c" opacity="0.2"/>
<rect x="200" y="133" width="58" height="8" rx="2" fill="#c9a84c" opacity="0.2"/>
<rect x="286" y="133" width="58" height="8" rx="2" fill="#c9a84c" opacity="0.2"/>
<rect x="372" y="133" width="58" height="8" rx="2" fill="#c9a84c" opacity="0.2"/>
<rect x="458" y="133" width="58" height="8" rx="2" fill="#c9a84c" opacity="0.2"/>
<rect x="544" y="133" width="58" height="8" rx="2" fill="#c9a84c" opacity="0.2"/>
<rect x="630" y="133" width="58" height="8" rx="2" fill="#c9a84c" opacity="0.2"/>
  <!-- Calendar cells — 5 rows × 6 cols (compact) -->
  <rect x="114" y="158" width="58" height="42" rx="3"
    fill="#0a0f1e"
    stroke="#c9a84c"
    stroke-width="0.5"
    opacity="0.12"/>
    <rect x="118" y="166" width="18" height="6" rx="2"
      fill="#c9a84c" opacity="0.15"/>
    <rect x="118" y="177" width="36" height="4" rx="2"
      fill="#c9a84c" opacity="0.1"/>
<rect x="200" y="158" width="58" height="42" rx="3"
    fill="#0a0f1e"
    stroke="#c9a84c"
    stroke-width="0.5"
    opacity="0.135"/>
    <rect x="204" y="166" width="18" height="6" rx="2"
      fill="#c9a84c" opacity="0.15"/>
    <rect x="204" y="177" width="36" height="4" rx="2"
      fill="#c9a84c" opacity="0.1"/>
<rect x="286" y="158" width="58" height="42" rx="3"
    fill="#0a0f1e"
    stroke="#c9a84c"
    stroke-width="0.5"
    opacity="0.15"/>
    <rect x="290" y="166" width="18" height="6" rx="2"
      fill="#c9a84c" opacity="0.15"/>
    <rect x="290" y="177" width="36" height="4" rx="2"
      fill="#c9a84c" opacity="0.1"/>
<rect x="372" y="158" width="58" height="42" rx="3"
    fill="#0a0f1e"
    stroke="#c9a84c"
    stroke-width="0.5"
    opacity="0.16499999999999998"/>
    <rect x="376" y="166" width="18" height="6" rx="2"
      fill="#c9a84c" opacity="0.15"/>
    <rect x="376" y="177" width="36" height="4" rx="2"
      fill="#c9a84c" opacity="0.1"/>
<rect x="458" y="158" width="58" height="42" rx="3"
    fill="#0a0f1e"
    stroke="#c9a84c"
    stroke-width="0.5"
    opacity="0.18"/>
    <rect x="462" y="166" width="18" height="6" rx="2"
      fill="#c9a84c" opacity="0.15"/>
    <rect x="462" y="177" width="36" height="4" rx="2"
      fill="#c9a84c" opacity="0.1"/>
<rect x="544" y="158" width="58" height="42" rx="3"
    fill="#0a0f1e"
    stroke="#c9a84c"
    stroke-width="0.5"
    opacity="0.195"/>
    <rect x="548" y="166" width="18" height="6" rx="2"
      fill="#c9a84c" opacity="0.15"/>
    <rect x="548" y="177" width="36" height="4" rx="2"
      fill="#c9a84c" opacity="0.1"/>
<rect x="114" y="216" width="58" height="42" rx="3"
    fill="url(#gold-d)"
    stroke="#c9a84c"
    stroke-width="1.5"
    opacity="1"/>
    <rect x="118" y="224" width="18" height="6" rx="2"
      fill="#c9a84c" opacity="0.9"/>
    <rect x="118" y="235" width="36" height="4" rx="2"
      fill="#0a0f1e" opacity="0.5"/>
<rect x="200" y="216" width="58" height="42" rx="3"
    fill="#0a0f1e"
    stroke="#c9a84c"
    stroke-width="0.5"
    opacity="0.135"/>
    <rect x="204" y="224" width="18" height="6" rx="2"
      fill="#c9a84c" opacity="0.15"/>
    <rect x="204" y="235" width="36" height="4" rx="2"
      fill="#c9a84c" opacity="0.1"/>
<rect x="286" y="216" width="58" height="42" rx="3"
    fill="#0a0f1e"
    stroke="#c9a84c"
    stroke-width="0.5"
    opacity="0.15"/>
    <rect x="290" y="224" width="18" height="6" rx="2"
      fill="#c9a84c" opacity="0.15"/>
    <rect x="290" y="235" width="36" height="4" rx="2"
      fill="#c9a84c" opacity="0.1"/>
<rect x="372" y="216" width="58" height="42" rx="3"
    fill="#0a0f1e"
    stroke="#c9a84c"
    stroke-width="0.5"
    opacity="0.16499999999999998"/>
    <rect x="376" y="224" width="18" height="6" rx="2"
      fill="#c9a84c" opacity="0.15"/>
    <rect x="376" y="235" width="36" height="4" rx="2"
      fill="#c9a84c" opacity="0.1"/>
<rect x="458" y="216" width="58" height="42" rx="3"
    fill="#0a0f1e"
    stroke="#c9a84c"
    stroke-width="0.5"
    opacity="0.18"/>
    <rect x="462" y="224" width="18" height="6" rx="2"
      fill="#c9a84c" opacity="0.15"/>
    <rect x="462" y="235" width="36" height="4" rx="2"
      fill="#c9a84c" opacity="0.1"/>
<rect x="544" y="216" width="58" height="42" rx="3"
    fill="#0a0f1e"
    stroke="#c9a84c"
    stroke-width="0.5"
    opacity="0.195"/>
    <rect x="548" y="224" width="18" height="6" rx="2"
      fill="#c9a84c" opacity="0.15"/>
    <rect x="548" y="235" width="36" height="4" rx="2"
      fill="#c9a84c" opacity="0.1"/>
<rect x="114" y="274" width="58" height="42" rx="3"
    fill="#0a0f1e"
    stroke="#c9a84c"
    stroke-width="0.5"
    opacity="0.12"/>
    <rect x="118" y="282" width="18" height="6" rx="2"
      fill="#c9a84c" opacity="0.15"/>
    <rect x="118" y="293" width="36" height="4" rx="2"
      fill="#c9a84c" opacity="0.1"/>
<rect x="200" y="274" width="58" height="42" rx="3"
    fill="#0a0f1e"
    stroke="#c9a84c"
    stroke-width="0.5"
    opacity="0.135"/>
    <rect x="204" y="282" width="18" height="6" rx="2"
      fill="#c9a84c" opacity="0.15"/>
    <rect x="204" y="293" width="36" height="4" rx="2"
      fill="#c9a84c" opacity="0.1"/>
<rect x="286" y="274" width="58" height="42" rx="3"
    fill="#0a0f1e"
    stroke="#c9a84c"
    stroke-width="0.5"
    opacity="0.15"/>
    <rect x="290" y="282" width="18" height="6" rx="2"
      fill="#c9a84c" opacity="0.15"/>
    <rect x="290" y="293" width="36" height="4" rx="2"
      fill="#c9a84c" opacity="0.1"/>
<rect x="372" y="274" width="58" height="42" rx="3"
    fill="#0a0f1e"
    stroke="#c9a84c"
    stroke-width="0.5"
    opacity="0.16499999999999998"/>
    <rect x="376" y="282" width="18" height="6" rx="2"
      fill="#c9a84c" opacity="0.15"/>
    <rect x="376" y="293" width="36" height="4" rx="2"
      fill="#c9a84c" opacity="0.1"/>
<rect x="458" y="274" width="58" height="42" rx="3"
    fill="#0a0f1e"
    stroke="#c9a84c"
    stroke-width="0.5"
    opacity="0.18"/>
    <rect x="462" y="282" width="18" height="6" rx="2"
      fill="#c9a84c" opacity="0.15"/>
    <rect x="462" y="293" width="36" height="4" rx="2"
      fill="#c9a84c" opacity="0.1"/>
<rect x="544" y="274" width="58" height="42" rx="3"
    fill="#0a0f1e"
    stroke="#c9a84c"
    stroke-width="0.5"
    opacity="0.195"/>
    <rect x="548" y="282" width="18" height="6" rx="2"
      fill="#c9a84c" opacity="0.15"/>
    <rect x="548" y="293" width="36" height="4" rx="2"
      fill="#c9a84c" opacity="0.1"/>
<rect x="114" y="332" width="58" height="42" rx="3"
    fill="#0a0f1e"
    stroke="#c9a84c"
    stroke-width="0.5"
    opacity="0.12"/>
    <rect x="118" y="340" width="18" height="6" rx="2"
      fill="#c9a84c" opacity="0.15"/>
    <rect x="118" y="351" width="36" height="4" rx="2"
      fill="#c9a84c" opacity="0.1"/>
<rect x="200" y="332" width="58" height="42" rx="3"
    fill="#0a0f1e"
    stroke="#c9a84c"
    stroke-width="0.5"
    opacity="0.135"/>
    <rect x="204" y="340" width="18" height="6" rx="2"
      fill="#c9a84c" opacity="0.15"/>
    <rect x="204" y="351" width="36" height="4" rx="2"
      fill="#c9a84c" opacity="0.1"/>
<rect x="286" y="332" width="58" height="42" rx="3"
    fill="#0a0f1e"
    stroke="#c9a84c"
    stroke-width="0.5"
    opacity="0.15"/>
    <rect x="290" y="340" width="18" height="6" rx="2"
      fill="#c9a84c" opacity="0.15"/>
    <rect x="290" y="351" width="36" height="4" rx="2"
      fill="#c9a84c" opacity="0.1"/>
<rect x="372" y="332" width="58" height="42" rx="3"
    fill="#0a0f1e"
    stroke="#c9a84c"
    stroke-width="0.5"
    opacity="0.16499999999999998"/>
    <rect x="376" y="340" width="18" height="6" rx="2"
      fill="#c9a84c" opacity="0.15"/>
    <rect x="376" y="351" width="36" height="4" rx="2"
      fill="#c9a84c" opacity="0.1"/>
<rect x="458" y="332" width="58" height="42" rx="3"
    fill="#0a0f1e"
    stroke="#c9a84c"
    stroke-width="0.5"
    opacity="0.18"/>
    <rect x="462" y="340" width="18" height="6" rx="2"
      fill="#c9a84c" opacity="0.15"/>
    <rect x="462" y="351" width="36" height="4" rx="2"
      fill="#c9a84c" opacity="0.1"/>
<rect x="544" y="332" width="58" height="42" rx="3"
    fill="#0a0f1e"
    stroke="#c9a84c"
    stroke-width="0.5"
    opacity="0.195"/>
    <rect x="548" y="340" width="18" height="6" rx="2"
      fill="#c9a84c" opacity="0.15"/>
    <rect x="548" y="351" width="36" height="4" rx="2"
      fill="#c9a84c" opacity="0.1"/>
<rect x="114" y="390" width="58" height="42" rx="3"
    fill="#0a0f1e"
    stroke="#c9a84c"
    stroke-width="0.5"
    opacity="0.12"/>
    <rect x="118" y="398" width="18" height="6" rx="2"
      fill="#c9a84c" opacity="0.15"/>
    <rect x="118" y="409" width="36" height="4" rx="2"
      fill="#c9a84c" opacity="0.1"/>
<rect x="200" y="390" width="58" height="42" rx="3"
    fill="#0a0f1e"
    stroke="#c9a84c"
    stroke-width="0.5"
    opacity="0.135"/>
    <rect x="204" y="398" width="18" height="6" rx="2"
      fill="#c9a84c" opacity="0.15"/>
    <rect x="204" y="409" width="36" height="4" rx="2"
      fill="#c9a84c" opacity="0.1"/>
<rect x="286" y="390" width="58" height="42" rx="3"
    fill="#0a0f1e"
    stroke="#c9a84c"
    stroke-width="0.5"
    opacity="0.15"/>
    <rect x="290" y="398" width="18" height="6" rx="2"
      fill="#c9a84c" opacity="0.15"/>
    <rect x="290" y="409" width="36" height="4" rx="2"
      fill="#c9a84c" opacity="0.1"/>
<rect x="372" y="390" width="58" height="42" rx="3"
    fill="#0a0f1e"
    stroke="#c9a84c"
    stroke-width="0.5"
    opacity="0.16499999999999998"/>
    <rect x="376" y="398" width="18" height="6" rx="2"
      fill="#c9a84c" opacity="0.15"/>
    <rect x="376" y="409" width="36" height="4" rx="2"
      fill="#c9a84c" opacity="0.1"/>
<rect x="458" y="390" width="58" height="42" rx="3"
    fill="#0a0f1e"
    stroke="#c9a84c"
    stroke-width="0.5"
    opacity="0.18"/>
    <rect x="462" y="398" width="18" height="6" rx="2"
      fill="#c9a84c" opacity="0.15"/>
    <rect x="462" y="409" width="36" height="4" rx="2"
      fill="#c9a84c" opacity="0.1"/>
<rect x="544" y="390" width="58" height="42" rx="3"
    fill="#0a0f1e"
    stroke="#c9a84c"
    stroke-width="0.5"
    opacity="0.195"/>
    <rect x="548" y="398" width="18" height="6" rx="2"
      fill="#c9a84c" opacity="0.15"/>
    <rect x="548" y="409" width="36" height="4" rx="2"
      fill="#c9a84c" opacity="0.1"/>

</svg>